<mxfile host="Electron" modified="2024-07-28T17:45:26.011Z" agent="Mozilla/5.0 (X11; Linux x86_64) AppleWebKit/537.36 (KHTML, like Gecko) draw.io/24.5.3 Chrome/124.0.6367.207 Electron/30.0.6 Safari/537.36" etag="Rsn8fr5APk7-uopbR-vV" version="24.5.3" type="device">
  <diagram name="Page-1" id="CiyXFAk-7DnXUXdZaAjp">
    <mxGraphModel dx="2537" dy="2124" grid="1" gridSize="10" guides="1" tooltips="1" connect="1" arrows="1" fold="1" page="1" pageScale="1" pageWidth="850" pageHeight="1100" math="0" shadow="0">
      <root>
        <mxCell id="0" />
        <mxCell id="1" parent="0" />
        <mxCell id="R1uBKBtUVDpoqwzy7uyu-8" value="" style="rounded=0;whiteSpace=wrap;html=1;" vertex="1" parent="1">
          <mxGeometry x="120" y="240" width="490" height="250" as="geometry" />
        </mxCell>
        <mxCell id="R1uBKBtUVDpoqwzy7uyu-2" value="" style="endArrow=none;html=1;rounded=0;entryX=1;entryY=0.25;entryDx=0;entryDy=0;exitX=0;exitY=0.25;exitDx=0;exitDy=0;strokeWidth=1;" edge="1" parent="1">
          <mxGeometry width="50" height="50" relative="1" as="geometry">
            <mxPoint x="120" y="290" as="sourcePoint" />
            <mxPoint x="610" y="290" as="targetPoint" />
          </mxGeometry>
        </mxCell>
        <mxCell id="R1uBKBtUVDpoqwzy7uyu-20" style="edgeStyle=orthogonalEdgeStyle;rounded=0;orthogonalLoop=1;jettySize=auto;html=1;" edge="1" parent="1" source="R1uBKBtUVDpoqwzy7uyu-3">
          <mxGeometry relative="1" as="geometry">
            <mxPoint x="498.5" y="190" as="targetPoint" />
          </mxGeometry>
        </mxCell>
        <mxCell id="R1uBKBtUVDpoqwzy7uyu-3" value="Start a game" style="rounded=1;html=1;shadow=0;dashed=0;whiteSpace=wrap;fontSize=10;fillColor=#E6E6E6;align=center;strokeColor=#B3B3B3;fontColor=#333333;arcSize=0;" vertex="1" parent="1">
          <mxGeometry x="470" y="250" width="57" height="30" as="geometry" />
        </mxCell>
        <mxCell id="R1uBKBtUVDpoqwzy7uyu-25" style="edgeStyle=orthogonalEdgeStyle;rounded=0;orthogonalLoop=1;jettySize=auto;html=1;entryX=1;entryY=0.5;entryDx=0;entryDy=0;" edge="1" parent="1" source="R1uBKBtUVDpoqwzy7uyu-5" target="R1uBKBtUVDpoqwzy7uyu-22">
          <mxGeometry relative="1" as="geometry">
            <mxPoint x="20" y="200" as="targetPoint" />
            <Array as="points">
              <mxPoint x="260" y="265" />
              <mxPoint x="260" y="65" />
            </Array>
          </mxGeometry>
        </mxCell>
        <mxCell id="R1uBKBtUVDpoqwzy7uyu-5" value="Join a game" style="rounded=1;html=1;shadow=0;dashed=0;whiteSpace=wrap;fontSize=10;fillColor=#E6E6E6;align=center;strokeColor=#B3B3B3;fontColor=#333333;arcSize=0;" vertex="1" parent="1">
          <mxGeometry x="403" y="250" width="57" height="30" as="geometry" />
        </mxCell>
        <mxCell id="R1uBKBtUVDpoqwzy7uyu-15" style="edgeStyle=orthogonalEdgeStyle;rounded=0;orthogonalLoop=1;jettySize=auto;html=1;" edge="1" parent="1" source="R1uBKBtUVDpoqwzy7uyu-6">
          <mxGeometry relative="1" as="geometry">
            <mxPoint x="690" y="265" as="targetPoint" />
          </mxGeometry>
        </mxCell>
        <mxCell id="R1uBKBtUVDpoqwzy7uyu-6" value="Agents" style="rounded=1;html=1;shadow=0;dashed=0;whiteSpace=wrap;fontSize=10;fillColor=#E6E6E6;align=center;strokeColor=#B3B3B3;fontColor=#333333;arcSize=0;" vertex="1" parent="1">
          <mxGeometry x="540" y="250" width="57" height="30" as="geometry" />
        </mxCell>
        <mxCell id="R1uBKBtUVDpoqwzy7uyu-7" value="AIghts" style="text;html=1;align=center;verticalAlign=middle;whiteSpace=wrap;rounded=0;" vertex="1" parent="1">
          <mxGeometry x="120" y="250" width="60" height="30" as="geometry" />
        </mxCell>
        <mxCell id="R1uBKBtUVDpoqwzy7uyu-26" style="edgeStyle=orthogonalEdgeStyle;rounded=0;orthogonalLoop=1;jettySize=auto;html=1;" edge="1" parent="1" source="R1uBKBtUVDpoqwzy7uyu-9">
          <mxGeometry relative="1" as="geometry">
            <mxPoint y="200" as="targetPoint" />
          </mxGeometry>
        </mxCell>
        <mxCell id="R1uBKBtUVDpoqwzy7uyu-9" value="Game name&lt;div&gt;N° players: 4&lt;/div&gt;&lt;div&gt;N° agents: 1&lt;/div&gt;&lt;div&gt;Created: 10min ago&lt;/div&gt;" style="rounded=1;whiteSpace=wrap;html=1;" vertex="1" parent="1">
          <mxGeometry x="140" y="310" width="130" height="70" as="geometry" />
        </mxCell>
        <mxCell id="R1uBKBtUVDpoqwzy7uyu-10" value="Game name&lt;div&gt;N° players: 4&lt;/div&gt;&lt;div&gt;N° agents: 1&lt;/div&gt;&lt;div&gt;Created: 10min ago&lt;/div&gt;" style="rounded=1;whiteSpace=wrap;html=1;" vertex="1" parent="1">
          <mxGeometry x="295" y="310" width="130" height="70" as="geometry" />
        </mxCell>
        <mxCell id="R1uBKBtUVDpoqwzy7uyu-11" value="Game name&lt;div&gt;N° players: 4&lt;/div&gt;&lt;div&gt;N° agents: 1&lt;/div&gt;&lt;div&gt;Created: 10min ago&lt;/div&gt;" style="rounded=1;whiteSpace=wrap;html=1;" vertex="1" parent="1">
          <mxGeometry x="460" y="310" width="130" height="70" as="geometry" />
        </mxCell>
        <mxCell id="R1uBKBtUVDpoqwzy7uyu-12" value="Game name&lt;div&gt;N° players: 4&lt;/div&gt;&lt;div&gt;N° agents: 1&lt;/div&gt;&lt;div&gt;Created: 10min ago&lt;/div&gt;" style="rounded=1;whiteSpace=wrap;html=1;" vertex="1" parent="1">
          <mxGeometry x="140" y="390" width="130" height="70" as="geometry" />
        </mxCell>
        <mxCell id="R1uBKBtUVDpoqwzy7uyu-13" value="Game name&lt;div&gt;N° players: 4&lt;/div&gt;&lt;div&gt;N° agents: 1&lt;/div&gt;&lt;div&gt;Created: 10min ago&lt;/div&gt;" style="rounded=1;whiteSpace=wrap;html=1;" vertex="1" parent="1">
          <mxGeometry x="295" y="390" width="130" height="70" as="geometry" />
        </mxCell>
        <mxCell id="R1uBKBtUVDpoqwzy7uyu-14" value="Landing page" style="text;html=1;align=center;verticalAlign=middle;whiteSpace=wrap;rounded=0;fillColor=#6d8764;fontColor=#ffffff;strokeColor=#3A5431;" vertex="1" parent="1">
          <mxGeometry x="120" y="220" width="90" height="20" as="geometry" />
        </mxCell>
        <mxCell id="R1uBKBtUVDpoqwzy7uyu-16" value="" style="rounded=0;whiteSpace=wrap;html=1;" vertex="1" parent="1">
          <mxGeometry x="690" y="240" width="340" height="250" as="geometry" />
        </mxCell>
        <mxCell id="R1uBKBtUVDpoqwzy7uyu-17" value="Agents page" style="text;html=1;align=center;verticalAlign=middle;whiteSpace=wrap;rounded=0;fillColor=#6d8764;fontColor=#ffffff;strokeColor=#3A5431;" vertex="1" parent="1">
          <mxGeometry x="690" y="220" width="90" height="20" as="geometry" />
        </mxCell>
        <mxCell id="R1uBKBtUVDpoqwzy7uyu-18" value="New game page" style="text;html=1;align=center;verticalAlign=middle;whiteSpace=wrap;rounded=0;fillColor=#6d8764;fontColor=#ffffff;strokeColor=#3A5431;" vertex="1" parent="1">
          <mxGeometry x="280" y="-80" width="90" height="20" as="geometry" />
        </mxCell>
        <mxCell id="R1uBKBtUVDpoqwzy7uyu-19" value="" style="rounded=0;whiteSpace=wrap;html=1;" vertex="1" parent="1">
          <mxGeometry x="280" y="-60" width="350" height="250" as="geometry" />
        </mxCell>
        <mxCell id="R1uBKBtUVDpoqwzy7uyu-21" value="Game page" style="text;html=1;align=center;verticalAlign=middle;whiteSpace=wrap;rounded=0;fillColor=#6d8764;fontColor=#ffffff;strokeColor=#3A5431;" vertex="1" parent="1">
          <mxGeometry x="-160" y="-80" width="90" height="20" as="geometry" />
        </mxCell>
        <mxCell id="R1uBKBtUVDpoqwzy7uyu-22" value="" style="rounded=0;whiteSpace=wrap;html=1;" vertex="1" parent="1">
          <mxGeometry x="-160" y="-60" width="350" height="250" as="geometry" />
        </mxCell>
        <mxCell id="R1uBKBtUVDpoqwzy7uyu-23" value="Start" style="rounded=1;html=1;shadow=0;dashed=0;whiteSpace=wrap;fontSize=10;fillColor=#E6E6E6;align=center;strokeColor=#B3B3B3;fontColor=#333333;arcSize=0;" vertex="1" parent="1">
          <mxGeometry x="550" y="150" width="57" height="30" as="geometry" />
        </mxCell>
        <mxCell id="R1uBKBtUVDpoqwzy7uyu-24" style="edgeStyle=orthogonalEdgeStyle;rounded=0;orthogonalLoop=1;jettySize=auto;html=1;entryX=1;entryY=0.911;entryDx=0;entryDy=0;entryPerimeter=0;" edge="1" parent="1" source="R1uBKBtUVDpoqwzy7uyu-23" target="R1uBKBtUVDpoqwzy7uyu-22">
          <mxGeometry relative="1" as="geometry" />
        </mxCell>
      </root>
    </mxGraphModel>
  </diagram>
</mxfile>
